M48
; DRILL file {KiCad (5.1.5)-3} date 02.04.2020 18:20:40
; FORMAT={3:3/ absolute / metric / suppress leading zeros}
; #@! TF.CreationDate,2020-04-02T18:20:40+02:00
; #@! TF.GenerationSoftware,Kicad,Pcbnew,(5.1.5)-3
FMAT,2
METRIC,TZ
T1C0.200
T2C0.400
T3C0.500
T4C0.650
T5C0.762
T6C0.850
T7C0.950
T8C1.000
T9C1.016
T10C1.020
T11C1.100
T12C1.150
T13C1.200
T14C1.500
T15C1.600
T16C1.650
T17C5.300
%
G90
G05
T1
X188000Y-55400
X188000Y-56525
X188000Y-57650
X188000Y-58775
X188000Y-59900
X189125Y-55400
X189125Y-56525
X189125Y-57650
X189125Y-58775
X189125Y-59900
X190250Y-55400
X190250Y-56525
X190250Y-57650
X190250Y-58775
X190250Y-59900
X191375Y-55400
X191375Y-56525
X191375Y-57650
X191375Y-58775
X191375Y-59900
X192500Y-55400
X192500Y-56525
X192500Y-57650
X192500Y-58775
X192500Y-59900
T2
X41900Y-58050
X41900Y-59650
X41900Y-160500
X42195Y-36755
X42195Y-38955
X42550Y-101000
X43145Y-37855
X43195Y-33455
X43750Y-58650
X44500Y-45300
X44500Y-149800
X44600Y-56500
X44650Y-157900
X44650Y-163050
X45350Y-125800
X45350Y-147750
X45800Y-73150
X45800Y-83600
X46145Y-35655
X46350Y-31950
X46400Y-146150
X47550Y-59750
X47600Y-37550
X47875Y-81025
X48050Y-55600
X48050Y-58550
X48200Y-127100
X48200Y-128850
X48625Y-60325
X49050Y-53650
X49050Y-54900
X49050Y-57700
X49250Y-118700
X49300Y-115050
X49800Y-122700
X49900Y-46250
X50200Y-49905
X50650Y-77100
X50650Y-143550
X50650Y-160715
X50700Y-150000
X50800Y-79100
X50850Y-92900
X51425Y-129725
X51950Y-77550
X51950Y-79050
X51955Y-141495
X52050Y-83500
X52200Y-128650
X52950Y-77050
X52950Y-79050
X53225Y-143875
X53700Y-60950
X53700Y-63250
X54150Y-54650
X54150Y-130750
X54200Y-82400
X54500Y-141450
X54500Y-149250
X54900Y-56450
X54950Y-77550
X55250Y-94050
X55300Y-71500
X55750Y-113400
X55850Y-128850
X56350Y-91100
X56400Y-76700
X56800Y-111300
X57035Y-141465
X57035Y-148515
X57350Y-165050
X57650Y-56450
X57700Y-107600
X58000Y-50600
X58000Y-119300
X58100Y-58450
X58100Y-100400
X58200Y-116300
X58300Y-133350
X59150Y-65050
X59250Y-90450
X59450Y-131050
X59450Y-132700
X59950Y-143350
X60650Y-100400
X60750Y-76700
X60800Y-89750
X61550Y-107250
X61700Y-78500
X61700Y-83250
X61850Y-163950
X62100Y-68250
X62550Y-110250
X62700Y-160750
X62950Y-151450
X63050Y-126650
X63450Y-97050
X63500Y-73100
X63550Y-105300
X63650Y-50750
X63650Y-52250
X63650Y-53650
X64215Y-58335
X64300Y-115000
X64475Y-59625
X65200Y-164850
X65425Y-60925
X65600Y-65150
X65950Y-69500
X66100Y-155000
X66200Y-94200
X66220Y-52880
X66350Y-146550
X66350Y-151500
X66650Y-160750
X66800Y-158700
X67000Y-50750
X67200Y-68250
X67300Y-107850
X67350Y-115300
X67800Y-74050
X68000Y-90600
X68000Y-146550
X68000Y-150750
X68300Y-98900
X68800Y-115150
X69075Y-125375
X69100Y-124300
X69200Y-90600
X69250Y-164950
X69350Y-74050
X69500Y-98900
X69500Y-116100
X70400Y-71350
X70400Y-80500
X70400Y-90600
X70400Y-92200
X70500Y-157100
X70550Y-98950
X70575Y-160925
X71000Y-171450
X71050Y-107950
X71200Y-154250
X71385Y-68635
X71413Y-79837
X71600Y-97300
X71600Y-128400
X71605Y-90595
X72050Y-100100
X72655Y-68645
X72655Y-97295
X72700Y-166550
X73400Y-90600
X73450Y-155150
X74150Y-78800
X74150Y-95600
X74350Y-170900
X74500Y-110050
X74600Y-128000
X74650Y-56750
X75050Y-162800
X75300Y-73700
X75450Y-78800
X75450Y-93050
X75700Y-116300
X75900Y-113150
X76700Y-68700
X77200Y-151565
X77650Y-73450
X77950Y-78800
X77950Y-91350
X79100Y-109900
X79225Y-70475
X79225Y-74075
X80275Y-67975
X80350Y-69200
X80600Y-103550
X81695Y-74050
X82815Y-45465
X84000Y-114950
X84800Y-69300
X85000Y-99500
X85400Y-46750
X85400Y-103550
X86450Y-66595
X88050Y-73900
X88100Y-77700
X88200Y-49200
X88900Y-68650
X89600Y-151565
X91300Y-65200
X91450Y-113450
X91550Y-71350
X92125Y-70475
X92150Y-72200
X93900Y-54150
X93950Y-56700
X93950Y-59300
X93950Y-62900
X93950Y-65200
X98000Y-67350
X98000Y-69900
X98000Y-72450
X98550Y-60650
X98550Y-117950
X98700Y-49850
X98950Y-47400
X101735Y-151550
X107250Y-101750
X111250Y-111600
X114200Y-151565
X117700Y-111850
X119250Y-57600
X119250Y-60150
X119250Y-62700
X119250Y-65200
X119250Y-67750
X119250Y-70300
X119250Y-72800
X119250Y-75350
X119250Y-77900
X119250Y-80450
X119250Y-83000
X124950Y-85400
X126300Y-151515
X126350Y-90500
X126350Y-98100
X127550Y-89650
X127550Y-97300
X128450Y-117750
X128750Y-88800
X128750Y-96450
X129000Y-113500
X136050Y-107950
X138800Y-151565
X139975Y-77225
X140000Y-37400
X140000Y-93900
X141250Y-86900
X141250Y-92200
X142515Y-77235
X142550Y-37400
X142550Y-70300
X142550Y-93050
X145050Y-77250
X145100Y-37400
X145100Y-70300
X145150Y-91350
X147595Y-77245
X147650Y-37400
X148850Y-92250
X150150Y-37400
X151350Y-151515
X152200Y-87900
X152200Y-92200
X163800Y-151515
X169700Y-56100
X169700Y-61900
X170700Y-56100
X170700Y-61900
X171700Y-56100
X171700Y-61900
X172700Y-56100
X173100Y-39650
X173700Y-56100
X174700Y-56100
X174700Y-61900
X175700Y-56100
X175700Y-61900
X176400Y-151565
X176700Y-56100
X176700Y-61900
X177700Y-56100
X177700Y-61900
X178650Y-58450
X178750Y-53250
X181800Y-71050
X182200Y-64050
X183200Y-58500
X184100Y-50200
X185550Y-70000
X186150Y-39650
X186750Y-63500
X186950Y-65900
X187150Y-70000
X188900Y-151565
X189100Y-50000
X189550Y-43400
X190750Y-42250
X191500Y-50400
X191500Y-51500
X192300Y-49600
X192400Y-35100
X194100Y-53750
X194200Y-70600
X195800Y-52000
X195800Y-61800
X196550Y-102150
X196950Y-52300
X198400Y-59500
X199300Y-55100
X199350Y-69150
X201300Y-64900
X201450Y-151615
X203550Y-54100
X206000Y-49200
X206000Y-67300
X206000Y-85400
X206300Y-79950
X206300Y-81850
X206300Y-83650
X206500Y-35200
X206500Y-37100
X206500Y-38900
X206500Y-62050
X206500Y-63950
X206500Y-65750
X206500Y-72000
X206500Y-73900
X206500Y-75700
X206550Y-43900
X206550Y-45800
X206550Y-47600
X206650Y-53300
X206650Y-55200
X206650Y-57000
X207400Y-80900
X207600Y-44850
X207600Y-63050
X208500Y-81850
X208500Y-83650
X208700Y-35200
X208700Y-37100
X208700Y-38900
X208700Y-63950
X208700Y-65750
X208700Y-72000
X208700Y-73900
X208700Y-75700
X208750Y-45800
X208750Y-47600
X208850Y-53300
X208850Y-55200
X208850Y-57000
X210900Y-81850
X210900Y-83650
X211100Y-35200
X211100Y-37100
X211100Y-38900
X211100Y-63950
X211100Y-65750
X211100Y-72000
X211100Y-73900
X211100Y-75700
X211150Y-45800
X211150Y-47600
X211250Y-53300
X211250Y-55200
X211250Y-57000
X212100Y-80900
X212400Y-44850
X212400Y-62950
X213400Y-79950
X213400Y-81850
X213400Y-83650
X213600Y-35200
X213600Y-37100
X213600Y-38900
X213600Y-62050
X213600Y-63950
X213600Y-65750
X213600Y-72000
X213600Y-73900
X213600Y-75700
X213650Y-43900
X213650Y-45800
X213650Y-47600
X213750Y-53300
X213750Y-55200
X213750Y-57000
X213800Y-151565
X214400Y-86150
X223900Y-34400
X223900Y-70900
X224000Y-52400
X224800Y-41300
X224800Y-43200
X224800Y-45000
X224850Y-59650
X224850Y-61550
X224850Y-63350
X225000Y-77350
X225000Y-79250
X225000Y-81050
X227000Y-41300
X227000Y-43200
X227000Y-45000
X227050Y-59650
X227050Y-61550
X227050Y-63350
X227200Y-77350
X227200Y-79250
X227200Y-81050
X229400Y-41300
X229400Y-43200
X229400Y-45000
X229450Y-59650
X229450Y-61550
X229450Y-63350
X229600Y-77350
X229600Y-79250
X229600Y-81050
X231900Y-41300
X231900Y-43200
X231900Y-45000
X231950Y-59650
X231950Y-61550
X231950Y-63350
X232000Y-71800
X232100Y-35600
X232100Y-53700
X232100Y-77350
X232100Y-79250
X232100Y-81050
X234300Y-52300
X234800Y-69950
X238600Y-57750
X238600Y-60250
X238600Y-62650
X238600Y-64850
X240500Y-57750
X240500Y-60250
X240500Y-62650
X240500Y-64850
X241550Y-44600
X241550Y-46500
X241550Y-48300
X242300Y-57750
X242300Y-60250
X242300Y-62650
X242300Y-64850
X242350Y-77400
X242350Y-79300
X242350Y-81100
X243750Y-44600
X243750Y-46500
X243750Y-48300
X244550Y-77400
X244550Y-79300
X244550Y-81100
X244900Y-115950
X246150Y-44600
X246150Y-46500
X246150Y-48300
X246950Y-77400
X246950Y-79300
X246950Y-81100
X248650Y-44600
X248650Y-46500
X248650Y-48300
X249450Y-77400
X249450Y-79300
X249450Y-81100
T3
X41300Y-64975
X42195Y-34555
X47900Y-106725
X51350Y-133950
X54000Y-50550
X56600Y-57700
X61900Y-50650
X62300Y-125450
X63550Y-105300
X63800Y-55550
X64400Y-95950
X64410Y-100910
X65950Y-115150
X67142Y-111258
X71000Y-113150
X74800Y-103600
X76900Y-99750
X76900Y-103550
X80700Y-113150
X85550Y-113150
X112075Y-106650
X116800Y-107850
X121100Y-107750
X126450Y-107750
X207150Y-103400
X234350Y-151750
X237700Y-151750
T4
X68520Y-168550
X73400Y-168550
X43300Y-116270
X43300Y-121150
T5
X143790Y-33320
X146330Y-33320
X148870Y-33320
X151410Y-33320
X153950Y-33320
X156490Y-33320
X159030Y-33320
X161570Y-33320
X164110Y-33320
X166650Y-33320
T6
X222250Y-90550
X222250Y-95550
X235350Y-90550
X235350Y-95550
X209100Y-90550
X209100Y-95550
T7
X166550Y-134300
X169050Y-134300
X171550Y-134300
X116950Y-134400
X119450Y-134400
X121950Y-134400
X154200Y-134350
X156700Y-134350
X159200Y-134350
X216600Y-134250
X219100Y-134250
X221600Y-134250
X92400Y-134350
X94900Y-134350
X97400Y-134350
X191750Y-134250
X194250Y-134250
X196750Y-134250
X129200Y-134350
X131700Y-134350
X134200Y-134350
X141600Y-134350
X144100Y-134350
X146600Y-134350
X80050Y-134350
X82550Y-134350
X85050Y-134350
X204150Y-134250
X206650Y-134250
X209150Y-134250
X179250Y-134250
X181750Y-134250
X184250Y-134250
X104650Y-134400
X107150Y-134400
X109650Y-134400
T8
X218700Y-171900
X221200Y-171900
X181350Y-171900
X183850Y-171900
X55750Y-39150
X55750Y-45650
X60250Y-39150
X60250Y-45650
X131300Y-171950
X133800Y-171950
X119050Y-172000
X121550Y-172000
X168650Y-171900
X171150Y-171900
X250350Y-104000
X250350Y-106540
X250350Y-109080
X52750Y-100400
X52750Y-102940
X52750Y-105480
X52750Y-108020
X52750Y-110560
X52750Y-113100
X206250Y-171900
X208750Y-171900
X156300Y-171950
X158800Y-171950
X193850Y-171900
X196350Y-171900
X106750Y-172000
X109250Y-172000
X143700Y-171950
X146200Y-171950
X94500Y-172000
X97000Y-172000
X82150Y-172000
X84650Y-172000
X55850Y-63150
X55850Y-69650
X60350Y-63150
X60350Y-69650
X43200Y-104200
X43200Y-110700
X47700Y-104200
X47700Y-110700
T9
X128550Y-33320
X128550Y-68880
X131090Y-33320
X131090Y-68880
X133630Y-33320
X133630Y-68880
X136170Y-33320
X136170Y-68880
X138710Y-33320
X138710Y-68880
X141250Y-33320
X141250Y-68880
X143790Y-68880
X146330Y-68880
X148870Y-68880
X151410Y-68880
X153950Y-68880
X156490Y-68880
X159030Y-68880
X161570Y-68880
X164110Y-68880
X166650Y-68880
T10
X43660Y-92120
X43660Y-94660
X43660Y-97200
X46200Y-92120
X46200Y-94660
X46200Y-97200
X96000Y-43230
X96000Y-45770
X96000Y-48310
X96000Y-50850
X96000Y-53390
X96000Y-55930
X96000Y-58470
X96000Y-61010
X96000Y-63550
X96000Y-66090
X96000Y-68630
X96000Y-71170
X96000Y-73710
X96000Y-76250
X96000Y-78790
X96000Y-81330
X96000Y-83870
X96000Y-86410
X96000Y-88950
X121400Y-43230
X121400Y-45770
X121400Y-48310
X121400Y-50850
X121400Y-53390
X121400Y-55930
X121400Y-58470
X121400Y-61010
X121400Y-63550
X121400Y-66090
X121400Y-68630
X121400Y-71170
X121400Y-73710
X121400Y-76250
X121400Y-78790
X121400Y-81330
X121400Y-83870
X121400Y-86410
X121400Y-88950
T11
X247350Y-86650
X247350Y-91650
X247350Y-96650
X42500Y-152100
X45000Y-152100
X47500Y-152100
X50000Y-152100
X52500Y-152100
X55000Y-152100
X57500Y-152100
X60000Y-152100
X43250Y-128300
X43250Y-130800
X43250Y-133300
X43250Y-135800
T12
X87850Y-120690
X89850Y-103750
X94400Y-111200
X96150Y-101550
X102900Y-120740
X106300Y-104820
X117600Y-120740
X132750Y-120790
X148900Y-114300
X149050Y-105450
X156200Y-121200
X165150Y-114300
X179000Y-106200
X183450Y-94900
X187000Y-94850
X190600Y-94900
X202550Y-111650
X208200Y-116800
X215063Y-107288
X223900Y-118400
X223950Y-109700
X229050Y-167400
X230450Y-109400
X230500Y-123050
X230750Y-118050
X233900Y-123050
X236150Y-164500
X237300Y-123050
X239850Y-117550
X242000Y-103000
X242200Y-108450
X245100Y-124000
X248900Y-120450
X251250Y-151200
X252050Y-113900
X252050Y-117500
X84050Y-76790
X84050Y-79330
X84050Y-81870
X84050Y-84410
X84050Y-86950
X104800Y-148050
X107340Y-148050
X129550Y-148150
X132090Y-148150
X179500Y-148250
X182040Y-148250
X238360Y-167400
X240900Y-167400
X92750Y-148000
X95290Y-148000
X93350Y-106100
X93350Y-108640
X91750Y-76800
X91750Y-79340
X91750Y-81880
X91750Y-84420
X91750Y-86960
X80350Y-148000
X82890Y-148000
X216960Y-148400
X219500Y-148400
X191950Y-148300
X194490Y-148300
X43000Y-140160
X43000Y-142700
X43000Y-145240
X51600Y-121760
X51600Y-124300
X186140Y-33250
X188680Y-33250
X191220Y-33250
X193760Y-33250
X196300Y-33250
X47900Y-140160
X47900Y-142700
X47900Y-145240
X204450Y-148350
X206990Y-148350
X69700Y-140160
X69700Y-142700
X69700Y-145240
X64650Y-140160
X64650Y-142700
X64650Y-145240
X170550Y-33300
X173090Y-33300
X175630Y-33300
X178170Y-33300
X180710Y-33300
X141960Y-148150
X144500Y-148150
X117400Y-148100
X119940Y-148100
X159660Y-111600
X162200Y-111600
X154450Y-148100
X156990Y-148100
X166950Y-148200
X169490Y-148200
X52850Y-91260
X52850Y-93800
T13
X246100Y-56300
X246100Y-61300
X246100Y-66300
X246100Y-71300
T14
X44700Y-160475
T15
X42060Y-158010
X42060Y-163090
X47140Y-158010
X47140Y-163090
T16
X110700Y-102800
X115700Y-102800
X120700Y-102800
X125700Y-102800
X130700Y-102800
T17
X46100Y-175950
X247750Y-30400
X247750Y-175950
X58750Y-30400
T0
M30
